<svg xmlns="http://www.w3.org/2000/svg" width="131.399" height="43.646" viewBox="0 0 131.399 43.646"><defs><style>.a{fill:#e20010;}.b{fill:#d10010;}</style></defs><g transform="translate(-219.365 -240)"><g transform="translate(219.365 240)"><g transform="translate(52.093 7.666)"><path class="a" d="M373.34,285.151a4.931,4.931,0,0,1-2.592.644c-2.007,0-2.91-1.541-2.873-3.335a3.145,3.145,0,0,1,3.465-3.17h2Zm-2.064-16.482a14.826,14.826,0,0,0-6.73,1.768l-.563.29,1.341,2.993.756-.358a10.9,10.9,0,0,1,4.717-1.1c1.81.075,2.549.905,2.549,2.636v1.015h-2.958c-4.755,0-7.713,2.521-7.8,6.434a7.108,7.108,0,0,0,7.412,6.92,11.664,11.664,0,0,0,8.412-3.118V275.534c0-5.167-3.69-6.865-7.138-6.865Zm70.62,17.113v3.138a12.192,12.192,0,0,1-1.907.2c-3.986,0-6.365-1.878-6.365-6.262V264.368l5-.853v19.669c0,1.52.437,2.429,2.515,2.591C441.427,285.8,441.9,285.782,441.9,285.782Zm-21.952-9.337c.085-1.926.886-3.906,2.858-3.906,2.218,0,2.546,2.407,2.546,3.906Zm3.936,9.314a3.753,3.753,0,0,1-2.9-1.1c-.9-.97-1.3-2.965-1.188-5.085h10.763v-.495c-.1-7.046-2.5-10.255-7.757-10.255-5.87,0-8.156,5.4-8.2,10.472a10.74,10.74,0,0,0,3.387,8.281,8.324,8.324,0,0,0,5.384,1.74,12.145,12.145,0,0,0,3.539-.524,14.285,14.285,0,0,0,3.753-1.824l-1.408-2.9A9.659,9.659,0,0,1,423.881,285.76Zm-11.032.041v3.094a11.113,11.113,0,0,1-1.9.183c-4.077,0-6.509-1.968-6.509-6.13V264.365l5.118-.822v5.49h3.293V272.7h-3.293v10.456c0,1.369.422,2.552,2.569,2.627.29.01.671.01.726.015Zm-30.7-15.963,4.993-.815V288.9h-4.993Zm2.548-8.759a3.113,3.113,0,0,1,2.263.951,3.079,3.079,0,0,1,.865,2.243,3.171,3.171,0,0,1-6.343-.02A3.2,3.2,0,0,1,384.7,261.078Zm18.392,8.246-1.408,3.158a6.474,6.474,0,0,0-2.043-.208,5.686,5.686,0,0,0-3.413,1.268v15.375h-5.094l0-16.333a11.6,11.6,0,0,1,8.591-3.866A8.655,8.655,0,0,1,403.091,269.324Z" transform="translate(-362.59 -261.078)"/></g><g transform="translate(0)"><path class="a" d="M248.26,240v.055h-.442v.055h-.5v.055h-.442v.055h-.387v.056h-.276v.055h-.276v.056h-.276v.055h-.276v.055h-.276v.055h-.276v.055h-.166v.055h-.221v.055h-.221v.055h-.221v.055h-.166v.055h-.221v.055H243.4v.055h-.221v.055h-.166v.055h-.165v.055h-.166v.055h-.166v.055h-.165v.055h-.166v.055h-.166v.055h-.166v.055h-.166v.055h-.165v.055h-.166v.055h-.166v.055h-.165v.055h-.166v.055h-.111v.055h-.166v.055h-.11v.055H240.3v.055h-.111v.055h-.165v.055h-.166v.055h-.111v.055h-.166v.055h-.111v.055h-.165v.055H239.2v.055h-.166v.055h-.11v.055h-.111v.055H238.7v.055h-.166v.055h-.111v.055h-.11v.055H238.2v.055h-.111v.055h-.166v.055h-.11v.055h-.111v.055H237.6v.055h-.111v.055h-.166v.055h-.11v.055H237.1v.055h-.111v.055h-.11v.055h-.111v.055h-.111v.055h-.111v.055h-.111v.055h-.111v.055h-.111v.055h-.11v.055h-.111v.055h-.111v.056h-.111v.055h-.11v.056h-.111v.055H235.5v.055h-.111v.055h-.111v.055h-.11v.055h-.111v.055h-.111v.055h-.111v.055h-.055v.056h-.111v.055h-.11v.056h-.111v.055h-.055v.055h-.111v.056h-.111v.055h-.111v.055h-.055v.056H233.9v.055h-.11v.055h-.111v.055h-.111v.055h-.055v.055H233.4v.056h-.111v.055h-.111v.055h-.055v.055h-.11v.055h-.056v.055h-.11v.055h-.055v.055h-.111v.056h-.111v.055h-.055v.055H232.4v.055h-.056v.055h-.11v.055h-.111v.055h-.055v.055h-.111v.055h-.055v.056H231.8v.055h-.055v.055h-.111v.056h-.111v.055h-.055v.056h-.111v.055H231.3v.055h-.111v.056h-.055v.055h-.111v.055h-.055v.055h-.056v.055h-.11v.055h-.056v.055h-.111v.055h-.055v.055h-.111v.056h-.055v.055h-.055v.055h-.111v.055h-.055v.055h-.111v.055h-.055v.055h-.111v.055h-.055v.056h-.056v.055H229.7v.055h-.055v.055h-.111v.055h-.055v.055h-.055v.056h-.111v.055h-.055v.055H229.2v.056h-.11v.055h-.055v.055h-.055v.056h-.055v.055h-.111v.056h-.055v.055H228.7v.055h-.111v.055h-.055v.055h-.055v.055h-.055v.055h-.111v.055h-.055v.055H228.2v.056h-.111v.055h-.055v.056h-.056v.055h-.11v.055h-.055v.056h-.055v.055h-.055v.055h-.055v.056H227.6v.055h-.111v.055h-.055v.055h-.055v.055h-.055v.055h-.055v.056h-.055v.055H227.1v.055h-.055v.055h-.055V250h-.055v.055h-.056v.055h-.055v.055h-.111v.056h-.055v.055H226.6v.055h-.056v.055h-.055v.055h-.055v.055h-.111v.055h-.056v.055h-.055v.055h-.055v.056h-.055v.055h-.055v.055H226v.056h-.056v.055h-.055v.056h-.055v.055h-.056v.055h-.055v.056h-.055v.055h-.055v.055h-.055v.055H225.5v.055h-.056v.055h-.055v.055h-.056v.055h-.055v.055h-.055v.056h-.111v.055h-.055v.055H225v.055h-.055v.055h-.055v.055h-.056v.055h-.055v.055h-.055v.056h-.055v.055h-.055v.055h-.055v.11H224.5v.055h-.055v.056h-.055v.055h-.055v.055h-.055v.056h-.056v.055h-.055v.055h-.055v.056h-.055v.055h-.055v.111h-.055v.055H223.9v.055h-.055v.055h-.055v.055h-.056v.055h-.055v.055h-.056v.055h-.055v.056h-.055v.111h-.055v.055H223.4v.055h-.055v.056h-.055v.055h-.055v.055h-.055v.111h-.056v.055h-.055v.055h-.055v.111h-.055v.056H222.9v.055h-.055v.055h-.055v.111h-.055v.055h-.055v.055h-.055v.111h-.055v.055h-.056v.055h-.055v.055H222.4v.111h-.055v.055h-.055v.055h-.055v.111h-.056v.055h-.055v.055h-.055v.111h-.056v.056h-.055v.11h-.056v.056h-.055v.055H221.8v.11h-.055v.055h-.055v.111h-.055v.055h-.056v.111h-.055v.111h-.055v.055h-.056v.111h-.055v.055H221.3v.111h-.055v.111h-.055v.055h-.055v.11h-.056v.056h-.055v.11h-.056v.111h-.055v.111h-.055v.111H220.8v.055h-.055v.11h-.055v.111h-.055v.11h-.055v.111h-.055v.111h-.056v.11h-.055v.111h-.055v.111H220.3v.11h-.055v.166h-.055v.111h-.055v.111h-.055v.165h-.055v.111h-.055v.165h-.055v.166h-.056v.11h-.055v.221h-.055v.166H219.7v.166h-.055v.221h-.055v.276h-.055v.221h-.055v.387h-.055v.663h-.056v.608h.056v.553h.055v.276h.055v.221h.055v.221h.055v.165h.055v.166h.055v.166h.055v.11h.055v.111h.056v.11h.055v.111h.055v.111h.055v.111h.055v.11h.055v.055h.055v.111h.055v.055h.055v.111h.055v.055h.055v.111h.056v.055h.055v.055h.055v.056h.055v.055h.055v.055h.055v.056h.056v.055h.055v.055h.055v.056h.056v.055h.055v.056h.056v.055h.055v.055h.055v.055h.055v.055h.055v.055h.055v.055h.056v.055h.055v.055h.111v.056h.055v.055h.111v.056h.055v.055h.111v.055h.055v.056h.111v.055h.055v.055h.111v.056h.055v.055h.111v.055h.055v.055h.111v.055h.111v.055h.166v.056h.111v.055h.11v.055h.166v.055h.111v.055h.111v.055h.221v.055h.276v.055h.276v.056h.276v.055h1.381v-.055h.387v-.056h.331v-.055h.221v-.055h.221v-.055h.166V267.4h.166v-.055h.221v-.055h.166v-.055h.111v-.056h.165v-.055h.111v-.055h.111v-.055h.166v-.055h.11v-.055h.111v-.056h.111V266.8h.111v-.055h.111v-.056h.111v-.055h.111v-.055h.11v-.056h.111v-.055h.111v-.056h.11v-.055h.111V266.3h.056v-.055h.11v-.055h.055v-.055h.11v-.055h.111v-.055h.055v-.055h.111v-.056h.111v-.055h.055V265.8h.111v-.055h.055v-.055h.111v-.056h.055v-.055h.111v-.055h.055v-.056h.111v-.055h.055v-.055h.111V265.3h.055v-.055h.111v-.055h.055v-.056h.111v-.055h.055v-.055h.055v-.055h.111v-.055h.055v-.055h.055v-.055h.111v-.055h.055V264.7h.111v-.055h.055v-.055h.056v-.055h.111v-.055h.055v-.055h.055v-.055h.111v-.055h.055v-.055h.055V264.2h.11v-.055h.056v-.055h.055v-.055h.111v-.055h.055v-.055h.055v-.055h.111v-.055h.055v-.056h.055V263.7h.055v-.055h.111v-.055h.055v-.055h.055v-.055h.11v-.055h.056v-.055h.055v-.055h.111v-.056h.055V263.2h.056v-.055h.055v-.055h.111v-.055h.055v-.055h.055v-.055h.111v-.055h.055v-.056h.056v-.055h.11v-.055h.055v-.055h.055V262.6h.111v-.055h.055v-.056h.056v-.055h.11v-.055h.056v-.056h.055v-.055h.111v-.055h.055v-.056h.111V262.1h.055v-.056h.055v-.055h.111v-.055h.055v-.055h.111v-.055h.055v-.055h.11v-.055h.056v-.055h.11V261.6h.055v-.056h.111v-.055h.055v-.056h.055v-.055h.111v-.055h.055v-.056h.111v-.055h.055v-.055h.111V261.1h.055v-.055h.111v-.055h.055v-.055h.111v-.055h.055v-.055h.111v-.056h.055v-.055h.111v-.055h.055v-.055h.11v-.055h.056V260.5h.11v-.055h.055v-.055h.055v-.056h.111v-.055h.055v-.055h.111v-.055h.055v-.055h.111v-.055h.055V260h.111v-.055h.055v-.055h.111v-.056h.055v-.055h.111v-.055h.055v-.056h.111v-.055h.055v-.056h.111V259.5h.056v-.055h.11v-.056h.056v-.055h.11v-.055h.055v-.055h.11v-.055h.056v-.055h.11v-.055h.055v-.055h.111v-.055h.055v-.056h.111v-.055h.055v-.055h.111v-.055h.055v-.055h.111v-.055h.055v-.055h.111v-.055h.055v-.056h.111V258.4h.055v-.055h.111v-.055h.111v-.055h.055v-.055h.111v-.056h.055v-.055h.111v-.055h.055v-.056h.111V257.9h.055v-.055h.111v-.056h.055v-.055h.111v-.056h.111v-.055h.055v-.055h.111v-.055h.055v-.055h.111V257.4h.11v-.055h.056v-.055h.111v-.055h.055v-.056h.111v-.055h.055v-.056h.111v-.055h.11v-.055h.056v-.056h.11v-.055h.111V256.8h.055v-.056h.111v-.055h.111v-.055h.055v-.055h.111v-.055h.111v-.055h.055v-.056h.111v-.055h.11V256.3h.055v-.055h.111v-.055h.111v-.055h.055v-.055h.11v-.055h.111v-.056h.111v-.055h.055v-.055h.111V255.8h.11v-.055h.111v-.055h.056v-.055h.11v-.055h.111v-.055h.111v-.056h.11v-.055h.056v-.055h.11V255.3h.111v-.055h.111v-.056h.111v-.055h.11v-.055h.111v-.056h.111v-.055h.11v-.055h.111v-.055h.111v-.055h.111v-.055h.11V254.7h.055v-.055h.166v-.055h.11v-.056h.111v-.055h.111v-.055h.11v-.055h.166v-.055h.11v-.055h.111V254.2h.111v-.055h.11v-.056h.166v-.055h.111v-.055h.166v-.055h.111v-.055h.165v-.055h.166v-.056h.111V253.7h.166v-.055h.111v-.056h.165v-.055h.221v-.055h.165v-.056h.221v-.055h.166v-.056h.221v-.055h.221V253.2h.276v-.055h.331v-.055h.276v-.055h.939v-.055h.111v.055h.5v.055h.442v.055h.165v.055h.166v.055h.166v.055h.111v.056H255v.055h.111v.056h.111v.055h.055v.055h.11v.056h.111v.055h.055v.055h.111v.056h.055v.055h.111v.055h.055v.055h.056v.055h.055v.055h.056v.056h.055v.055h.055v.055h.055v.055h.055v.055h.055v.055h.056v.055h.055v.111h.055v.055h.056v.055h.055v.111h.055v.055h.055v.11h.055v.055h.055v.111h.056v.111h.055v.055h.056v.111h.055v.111h.055v.11h.056v.111h.055v.166h.055v.111h.055v.165h.055v.111h.055v.166h.056v.166h.055v.221h.055v.166h.055v.221h.055v.331h.055v.276h.055v.607h.055v1.381h-.055v.442h-.055v.5h-.055v.276h-.055v.276H257.6v.221h-.055v.276h-.055v.221h-.056v.221h-.055v.166h-.055v.166h-.055v.165h-.055v.221h-.055v.166H257.1v.166h-.055v.165h-.055v.111h-.056v.165h-.055v.111h-.056v.166h-.055v.111h-.055v.166h-.055v.11H256.6v.166h-.055v.11h-.056v.111h-.055v.11h-.055v.111h-.056v.166h-.055v.111h-.055v.11h-.055v.111H256.1v.11h-.055v.056h-.056v.11h-.055v.111h-.056v.111h-.055v.11h-.055v.055h-.056v.111h-.055v.11h-.055v.056h-.055v.111H255.5v.11h-.055v.056h-.056v.11h-.055v.111h-.055v.055h-.055v.111h-.055v.055h-.055v.111h-.055v.055H255v.111h-.055v.055h-.055v.11h-.055v.056h-.056v.11h-.055v.055h-.055v.111h-.055v.055h-.055v.055H254.5v.111h-.055v.055h-.055v.055h-.055v.111h-.056v.055h-.055v.055h-.056v.111h-.055v.055h-.055v.11h-.055v.055h-.055v.055h-.055v.055h-.055v.11h-.055v.056h-.055v.055h-.056v.055h-.055v.111h-.055v.055h-.055v.055h-.055v.055H253.4v.111h-.055v.055h-.055v.055h-.055v.055h-.055v.055h-.055v.111h-.056V270h-.055v.056h-.055v.055H252.9v.055h-.055v.111h-.055v.056h-.056v.055h-.055v.055h-.055v.055h-.056v.055h-.055v.055h-.056v.055H252.4v.11h-.055v.056h-.055v.055h-.055v.056h-.055v.055h-.056v.055h-.055v.056h-.055v.055h-.056v.055h-.055v.111h-.055v.055H251.8v.055h-.055v.055h-.055v.055h-.056v.056h-.055v.055h-.056v.055h-.055v.055h-.055v.055h-.056v.055H251.3v.055h-.055v.055h-.055v.056h-.055v.055h-.055v.055h-.056v.055h-.055v.055h-.055v.055h-.055v.055H250.8v.055h-.055v.055h-.055v.056h-.055v.055h-.055v.055h-.055v.055h-.055v.055h-.056v.055h-.055v.055H250.3v.055h-.055v.056h-.055v.055h-.055v.055h-.055v.055h-.055v.055h-.055v.055h-.056v.055h-.055v.055h-.056v.055h-.055v.056H249.7v.055h-.055v.055h-.055v.055h-.111v.055h-.055v.055h-.055v.055h-.056v.055h-.055v.056H249.2v.055h-.055v.055h-.055v.055h-.055v.055h-.055v.055h-.111v.056h-.055v.055h-.055v.055H248.7v.056h-.055v.055h-.055v.055h-.055v.056h-.055v.055h-.111v.056h-.055v.055h-.055v.055H248.2v.055h-.055v.055h-.056v.055h-.055v.055h-.111v.055h-.055v.055h-.055v.056h-.056v.055h-.055v.055H247.6v.055h-.055v.055h-.055v.056h-.055v.055h-.055v.055h-.111v.056h-.055v.055h-.056v.055H247.1v.055h-.055v.055h-.111v.055h-.055v.056h-.055v.055h-.055v.055h-.111v.055H246.6v.055h-.055v.055h-.055v.055h-.111v.055h-.055v.056h-.055v.055h-.055v.055h-.11v.055h-.056v.055h-.055v.055h-.055v.055h-.111v.055h-.055v.055h-.055v.056h-.11v.055h-.056v.055H245.5v.055h-.111v.055h-.055v.055h-.055v.055h-.111v.055h-.055v.056h-.055v.055h-.111v.055h-.055v.055h-.055v.055h-.111v.055h-.055v.055h-.055v.055H244.5v.055h-.055v.056h-.111v.055h-.055v.055h-.055v.055h-.111v.055h-.055v.055h-.111v.055H243.9v.055h-.111v.056h-.056v.055h-.055v.055h-.111v.055h-.055v.055H243.4v.055h-.055v.056h-.111v.055h-.055v.055h-.111v.056h-.055v.055H242.9v.055h-.055v.056h-.111V279h-.055v.056h-.111v.055h-.055v.055H242.4v.055h-.111v.055h-.055v.055h-.111v.055h-.055v.055h-.111v.055h-.111v.056H241.8v.055h-.111v.055h-.055v.055h-.111v.055h-.111v.056H241.3v.055h-.055v.055h-.111V280h-.111v.055h-.055v.055h-.111v.055h-.111v.055h-.11v.055h-.056v.056h-.11v.055h-.111v.055h-.111v.055h-.111v.055h-.11v.055h-.056v.055h-.11v.055h-.111v.056h-.111v.055h-.11v.055h-.111v.055h-.111v.055H239.2v.055h-.11v.055h-.166v.055h-.111v.055H238.7v.056h-.11v.055h-.111v.055h-.166v.055H238.2v.055h-.166v.055h-.111v.055h-.165v.055H237.6v.056h-.111v.055h-.221v.055H237.1v.055h-.166v.055h-.221v.055h-.276v.055h-.387v.055H235.5v-.055h-.221v-.055h-.166v-.055H235v-.055h-.11v-.055h-.055v-.055h-.055v-.055h-.055v-.056h-.056v-.11h-.055v-.111h-.055v-.111H234.5v-.166h-.055v-.552h.055v-.276h.056v-.166h.055V280h.055v-.111h.056v-.111h.055v-.11h.055v-.111h.055v-.111h.055v-.11H235v-.055h.056v-.111h.055v-.11h.056V279h.055v-.111h.055v-.055h.056v-.111h.055v-.055h.055v-.111h.055v-.055h.055v-.055h.055v-.111h.056v-.055h.055v-.056h.055v-.11h.055v-.055h.055v-.055h.055v-.11h.055v-.055h.055v-.056h.055v-.055h.055v-.055h.055v-.111h.056v-.055h.055v-.055h.055V277.4h.055v-.055h.055v-.056h.055v-.11h.055v-.055h.055v-.055h.055v-.055h.056v-.055h.055v-.055h.056v-.056h.055v-.055h.055v-.055h.055v-.055h.055v-.111h.055v-.055h.055v-.055h.055v-.055h.055v-.056h.056V276.3h.055v-.055h.055v-.055h.055v-.055h.055v-.055h.055v-.055h.055v-.055h.055v-.056h.055v-.055h.055V275.8h.055v-.055h.056v-.055h.055v-.055h.055v-.056h.055v-.055h.055v-.055h.055v-.056h.056v-.055h.055V275.3h.055v-.055h.056v-.055h.055v-.056h.056v-.055h.055v-.055h.055v-.055h.055v-.055h.055v-.055h.055v-.055h.056v-.055h.055V274.7h.055v-.056h.056v-.055h.055v-.056h.055v-.055h.055v-.055h.055v-.056h.055v-.055h.056v-.055h.055V274.2h.056v-.055h.055v-.055h.055v-.055h.056v-.055h.055v-.055h.055v-.056h.055v-.055h.055v-.055h.055V273.7h.056v-.055h.11v-.055h.055v-.11h.055v-.056h.055v-.055h.055v-.055h.055v-.055h.055V273.2h.055v-.055h.055v-.055h.056v-.055h.055v-.055h.055v-.056h.055v-.11h.055v-.055h.055v-.055h.055v-.055h.055V272.6h.055v-.055h.056v-.111h.055v-.055h.056v-.055h.055v-.111h.055v-.055h.055V272.1h.055v-.055h.055v-.111h.055v-.055h.055v-.111h.055v-.055h.056v-.11h.055v-.111h.055v-.055h.055v-.11h.055v-.111h.055v-.055h.055v-.166h.055v-.165h.055v-.166h.055v-.111h.055v-.829h-.055V269.5h-.055v-.165h-.055v-.055h-.055v-.11h-.055v-.055h-.055v-.111h-.055v-.055h-.055v-.055H241.8v-.055h-.055v-.055h-.056v-.055h-.055v-.055h-.055v-.055h-.055v-.056h-.111v-.055h-.055v-.055h-.11V268.4h-.056v-.055h-.111v-.055h-.11v-.055h-.111v-.055h-.111v-.056h-.166v-.055h-.165v-.055H240.3v-.055h-.166V267.9h-.276v-.055h-.221v-.055h-.331v-.055h-.5v-.055h-.055v.055h-.994v.055h-.332v.055h-.276v.055h-.166v.055h-.166v.055H236.6v.055h-.166v.055h-.111v.056h-.111v.055h-.11v.055h-.166v.055h-.111v.055h-.111v.055h-.111v.055h-.11v.055h-.055v.056h-.11v.055h-.056v.055h-.11v.055h-.056v.055H235v.055h-.055v.055h-.055v.055h-.111v.055h-.055v.056h-.111v.055h-.055v.055H234.5v.055h-.055v.055h-.055v.055h-.055v.055h-.11v.055h-.056v.056h-.055v.055h-.056v.055h-.055v.055h-.055v.055H233.9v.055h-.055v.056h-.055v.055h-.055V270h-.055v.056h-.055v.055h-.056v.055h-.055v.056h-.055v.055H233.4v.111h-.055v.055h-.055v.055h-.055v.055h-.055v.055h-.055v.11h-.055v.055h-.055v.056h-.056v.055H232.9v.056h-.055v.055h-.055v.111h-.055v.055h-.055v.111h-.055v.055h-.055v.11h-.055v.055h-.056v.111H232.4v.055h-.056v.111h-.055v.055h-.055v.11h-.055v.055h-.055v.111h-.055v.055h-.055v.111h-.055v.055h-.055v.11h-.056v.111H231.8v.11h-.055v.111h-.055v.111h-.055v.111h-.055v.11h-.055v.055h-.055v.111h-.055v.111h-.055v.111H231.3v.11h-.056v.111h-.055v.111h-.055v.111h-.055v.111h-.055v.11h-.055v.166h-.056v.111h-.055v.11H230.8v.166h-.056v.11h-.055v.111h-.056v.165h-.055v.111h-.055v.111h-.055v.166h-.055v.11h-.055v.166H230.3v.166h-.055v.166h-.055v.166h-.056v.221h-.055v.166h-.055v.165h-.055v.221h-.055v.387h-.055v.386h-.056v.442h-.055v.056h.055v1.1h.056v.221h.055v.221h.055v.276h.055v.221h.055v.11h.055v.111h.056v.165h.055v.111h.055v.111h.056v.111h.055v.11h.055v.111h.055v.055h.055v.111h.055v.055h.056v.111h.055v.055h.056v.056h.055v.11h.055v.055h.056v.055h.055v.111h.111v.055h.055v.055h.055v.056h.056v.055h.055v.055h.055v.055h.055v.055h.055v.055h.055v.055h.055v.055h.055v.056h.111v.055h.055v.055h.111v.055h.055v.055h.111v.055h.055v.056h.111v.055h.055v.055h.111v.056h.111v.055h.111v.055h.111v.056h.165v.055h.166v.056h.166v.055h.276v.055h.331v.055h.553v.055h.884v-.055h.663v-.055h.387v-.055h.331v-.055h.276v-.056h.276v-.055h.221v-.056h.221V283.2h.221v-.055h.166v-.056h.165v-.055h.221v-.055h.165v-.056h.166v-.055h.165v-.055h.166v-.055h.111v-.055h.166v-.055h.165V282.6h.111v-.055h.165v-.055h.11v-.055h.166v-.055h.111v-.055h.166v-.055h.111v-.055h.111v-.056h.11V282.1h.166v-.055h.111v-.055h.111v-.055h.111v-.055h.11v-.055h.111v-.055h.111v-.055h.166v-.056h.11V281.6h.111v-.055h.111v-.055h.111v-.055h.055v-.055h.111v-.055h.11v-.055h.111v-.056h.111v-.055h.11V281.1h.111v-.055h.111v-.055h.055v-.055h.111v-.055h.111v-.055h.11v-.055h.111v-.056h.055v-.055h.111v-.055h.111v-.055h.111V280.5h.055v-.055h.111v-.055h.11v-.055h.055v-.056h.11v-.055h.111v-.055h.055v-.055h.111v-.055h.111V280h.055v-.056h.111v-.055h.055v-.055h.111v-.056h.111v-.055h.055v-.055h.111v-.055h.055v-.055h.111V279.5h.111v-.055h.055v-.055h.111v-.055h.055v-.055h.111v-.055h.055v-.055h.111v-.055h.055v-.055h.111V279h.055v-.055h.111v-.056h.055v-.055h.111v-.055h.055v-.056h.111v-.055h.055v-.055h.055v-.056h.11v-.055h.056v-.055h.11V278.4h.056v-.055h.111v-.055h.055v-.056h.111v-.055h.055v-.055h.055v-.055h.111v-.055h.055v-.055h.056V277.9h.11v-.055h.055v-.056h.11v-.055h.056v-.055h.055v-.055h.111v-.055h.055v-.055h.056v-.055h.11V277.4h.055v-.055h.11v-.056h.056v-.055h.055v-.055h.111v-.055h.055v-.055h.055v-.055h.111v-.055h.055v-.055h.055v-.056h.055v-.055h.111v-.055h.055v-.055h.055v-.055h.111v-.055h.055v-.055h.055v-.055h.111v-.055h.055v-.056h.056V276.3h.055v-.055h.111v-.055h.055v-.055h.055v-.055h.111v-.055h.055v-.055h.056v-.056h.055v-.055h.111V275.8h.055v-.055h.055v-.055h.055v-.055h.111v-.056h.055v-.055h.055v-.055h.056v-.056h.11v-.055h.055V275.3h.055v-.055h.055v-.055h.056v-.056h.11v-.055h.056v-.055h.055v-.055h.056v-.055h.11v-.055h.055v-.055h.055v-.055h.055V274.7h.056v-.056h.11v-.055h.056v-.056h.055v-.055h.055v-.055h.055v-.056h.11v-.055h.056v-.055h.055V274.2h.056v-.055h.055v-.055h.055v-.055h.111v-.055h.055v-.055h.055v-.056h.055v-.055h.055v-.055h.056V273.7h.11v-.055h.055v-.055h.055v-.055h.055v-.055h.055v-.056h.055v-.055h.055v-.055h.11v-.055h.056V273.2h.055v-.055h.055v-.055h.055v-.055h.055v-.055h.055v-.056h.055v-.055h.055v-.055h.111v-.055h.055v-.055h.056v-.055h.055V272.6h.055v-.055h.055v-.056h.055v-.055h.055v-.055h.055v-.055h.055v-.055h.055v-.055h.056v-.055h.055V272.1h.055v-.055H255v-.056h.055v-.055h.055v-.055h.055v-.055h.055v-.055h.055v-.055h.055v-.055h.055V271.6h.056v-.056h.055v-.055h.055v-.055h.055v-.055h.055v-.055h.055v-.055h.056v-.056h.055v-.055h.055V271.1h.056v-.056h.055v-.055h.056v-.055h.055v-.056h.055v-.055h.055v-.111h.055v-.055h.055v-.055h.056v-.055h.055V270.5h.055v-.055h.056v-.055h.055v-.055h.055v-.056h.055v-.055h.055v-.111h.055v-.055h.056V270h.055v-.055h.056v-.055h.055v-.056h.055v-.11h.056v-.055h.055v-.055h.055v-.055h.055V269.5h.055v-.055h.055v-.111h.056v-.055h.055v-.055h.055v-.055h.055v-.055h.055v-.111h.055v-.055h.055v-.055h.055v-.111h.055v-.055h.055v-.055h.055v-.055h.056v-.111h.055v-.055h.055V268.4h.055v-.055h.055v-.111h.055v-.055h.055v-.056h.055v-.11h.055v-.055h.056V267.9h.055v-.111h.056v-.055h.055v-.055h.055v-.111h.055v-.055h.055V267.4h.055v-.055h.055v-.055h.055v-.111h.055v-.055h.056v-.111h.055v-.055h.055v-.055h.055V266.8h.055v-.055h.055v-.111h.055v-.055h.055v-.111h.055v-.056h.055v-.11h.055v-.055h.056v-.111h.055v-.055h.055v-.11h.055v-.056h.055V265.8h.055v-.11h.056v-.056h.055v-.11h.055v-.056h.056v-.11h.055v-.111h.056v-.055h.055v-.111h.055v-.111h.055v-.055h.055v-.11h.055V264.7h.056v-.055h.055v-.111h.055v-.111h.056v-.11h.055v-.055h.055v-.111h.055v-.111h.055v-.111h.055v-.11h.056V263.7h.055v-.11h.056v-.055h.055v-.111h.055v-.11h.056V263.2h.055v-.11h.055v-.111h.055v-.11h.055v-.111h.055v-.111h.056v-.11h.055v-.165h.055v-.111h.055v-.111h.055v-.111h.055v-.11h.055v-.111h.055v-.111h.055v-.166h.055v-.111h.055v-.166h.056v-.11h.055v-.166h.055v-.111h.055v-.166h.055v-.111h.055v-.165h.055v-.111h.055v-.165h.055V260h.056v-.166h.055v-.165h.056V259.5h.055v-.166h.055v-.165h.055v-.166h.055v-.166h.055v-.221h.055V258.4h.055v-.165h.055v-.221h.056v-.221h.055v-.221h.055v-.276h.055v-.276h.055v-.276h.055v-.276h.055v-.331h.055v-.442h.055v-.442h.055v-.718h.055v-1.713h-.055v-1.049h-.055v-.442h-.055v-.331h-.055v-.332h-.055v-.331h-.055V250h-.055v-.276h-.055v-.166h-.055v-.166h-.055v-.221h-.056v-.165h-.055v-.166H263.4v-.221h-.055v-.166h-.055v-.165h-.055v-.166h-.055v-.111h-.055v-.11h-.055v-.166h-.056v-.111h-.055v-.111H262.9v-.11h-.055v-.166h-.055v-.11h-.055v-.111h-.055v-.111h-.055v-.11h-.055v-.111h-.055v-.111h-.055v-.055H262.4v-.111h-.055v-.055h-.055v-.111h-.055v-.11h-.055v-.055h-.055v-.111h-.055v-.11h-.055V245.8h-.055v-.111h-.055v-.055h-.055v-.111H261.8v-.055h-.055v-.055h-.055V245.3h-.055v-.055h-.055v-.055h-.055v-.055h-.056v-.111h-.055v-.055h-.055v-.055H261.3v-.056h-.055v-.11h-.056V244.7h-.055v-.055h-.055v-.056h-.055v-.055h-.055v-.111h-.055v-.055h-.056v-.055H260.8v-.055h-.055V244.2h-.056v-.055h-.055v-.056h-.111v-.055h-.055v-.056h-.055v-.055h-.056v-.055H260.3v-.055h-.056v-.055h-.055V243.7h-.055v-.055h-.056v-.055h-.055v-.055h-.055v-.055h-.055v-.055h-.055v-.055h-.111v-.055H259.7v-.055h-.055V243.2h-.111v-.055h-.055v-.055h-.055v-.055h-.111v-.055h-.055v-.055H259.2v-.055h-.111v-.055h-.055v-.055h-.055v-.055h-.055v-.055h-.111V242.6h-.11v-.055h-.056v-.055h-.111v-.055h-.11v-.055h-.055v-.055h-.111v-.055H258.2v-.055h-.11v-.055h-.111V242.1h-.055v-.055h-.111v-.055h-.111v-.055H257.6v-.055h-.11v-.055h-.111v-.055h-.111v-.055h-.11v-.055h-.111V241.6h-.111v-.055h-.111v-.055h-.11v-.055H256.6v-.055h-.166v-.055h-.111v-.055h-.165v-.055h-.11v-.055h-.166V241.1h-.166v-.055h-.11v-.055h-.165v-.055h-.166v-.055h-.166v-.055h-.166v-.055h-.221v-.055h-.166v-.055h-.166v-.055h-.221v-.055h-.221V240.5h-.221v-.055h-.276v-.055h-.221v-.056h-.276v-.055h-.331v-.056h-.332v-.055h-.332v-.055h-.5v-.055h-.5V240Z" transform="translate(-219.365 -240)"/></g><g transform="translate(15.083 39.668)"><path class="b" d="M261.11,349.064v.11h.055v-.11Zm-.056.11v.111h.056v-.111Zm-.055.111v.111h.055v-.111Zm-.055.166v.11H261v-.11Zm-.056.165v.111h.056v-.111Zm-.055.276V350h.055v-.111Z" transform="translate(-260.834 -349.064)"/></g><g transform="translate(15.414 39.558)"><path class="b" d="M261.745,348.76v.111h.055v-.111Z" transform="translate(-261.745 -348.76)"/></g><g transform="translate(15.801 38.839)"><path class="b" d="M262.809,346.785v.111h.055v-.111Z" transform="translate(-262.809 -346.785)"/></g><g transform="translate(15.414 38.894)"><path class="b" d="M262.132,346.936v.056h-.056v.055h-.055v.111h-.056v.11h-.055v.055h-.055v.111H261.8v.11h-.055v.111h.055V347.6h.055v-.111h.055v-.11h.055v-.055h.056v-.111h.055v-.11h.056v-.056h.055v-.111Z" transform="translate(-261.745 -346.936)"/></g><g transform="translate(15.359 39.613)"><path class="b" d="M261.594,348.912v.11h.055v-.055h.055v-.055Z" transform="translate(-261.594 -348.912)"/></g></g></g></svg>