<svg xmlns="http://www.w3.org/2000/svg" width="45.601" height="45.6" viewBox="0 0 45.601 45.6"><defs><style>.a{fill:#ffb782;}.b{fill:#de4c3c;}.c{fill:#7a4930;}.d{fill:#4398d1;}.e{fill:#3e8cc7;}.f{fill:#5eb3d1;}.g{fill:#88b337;}.h{fill:#6b962a;}.i{fill:#fdb62f;}.j{fill:#fd7b2f;}.k{fill:#f2a46f;}</style></defs><g transform="translate(0 -0.301)"><path class="a" d="M457.33,69.783l-8.225-8.24V94.564h11.007V76.474A9.436,9.436,0,0,0,457.33,69.783Zm0,0" transform="translate(-414.512 -56.525)"/><path class="b" d="M6.428,32.029.211,15.888a3.145,3.145,0,0,1,1.8-4.065L31.362.519a3.144,3.144,0,0,1,4.064,1.8l6.218,16.141a3.145,3.145,0,0,1-1.8,4.065l-29.346,11.3A3.146,3.146,0,0,1,6.428,32.029Zm0,0" transform="translate(0 -0.007)"/><path class="c" d="M67.383,101.961,32.2,115.6l2.343,6.082,35.189-13.633Zm0,0" transform="translate(-29.716 -93.829)"/><path class="d" d="M0,20.742V3.446A3.145,3.145,0,0,1,3.149.3H34.6a3.145,3.145,0,0,1,3.145,3.145v17.3A3.145,3.145,0,0,1,34.6,23.887H3.149A3.145,3.145,0,0,1,0,20.742Zm0,0" transform="translate(-0.004)"/><path class="e" d="M126.447.3h-3.341L99.52,23.887h26.928a3.145,3.145,0,0,0,3.145-3.145V3.446A3.145,3.145,0,0,0,126.447.3Zm0,0" transform="translate(-91.854)"/><path class="f" d="M40.832,163.609h3.145v1.572H40.832Zm0,0" transform="translate(-37.687 -150.729)"/><path class="f" d="M40.832,224.852h3.145v1.572H40.832Zm0,0" transform="translate(-37.687 -207.254)"/><path class="f" d="M224.555,224.852H227.7v1.572h-3.145Zm0,0" transform="translate(-207.258 -207.254)"/><path class="f" d="M102.074,163.609h3.145v1.572h-3.145Zm0,0" transform="translate(-94.212 -150.729)"/><path class="f" d="M163.313,163.609h3.145v1.572h-3.145Zm0,0" transform="translate(-150.733 -150.729)"/><path class="f" d="M224.555,163.609H227.7v1.572h-3.145Zm0,0" transform="translate(-207.258 -150.729)"/><path class="f" d="M418.484,41.129h1.572v2.359h-1.572Zm0,0" transform="translate(-386.25 -37.683)"/><path class="f" d="M377.656,41.129h1.572v2.359h-1.572Zm0,0" transform="translate(-348.567 -37.683)"/><path class="f" d="M336.828,41.129H338.4v2.359h-1.572Zm0,0" transform="translate(-310.883 -37.683)"/><path class="f" d="M296,41.129h1.572v2.359H296Zm0,0" transform="translate(-273.204 -37.683)"/><path class="g" d="M408.277,490.23h14.152v7.862H408.277Zm0,0" transform="translate(-376.829 -452.191)"/><path class="a" d="M308.655,172.777a3.408,3.408,0,0,0-4.922,4.713l6.443,7.029a10.6,10.6,0,0,0,.215,10.879l.572.914h10.221V185.306Zm0,0" transform="translate(-279.514 -158.273)"/><path class="h" d="M438.9,520.852h1.572v1.572H438.9Zm0,0" transform="translate(-405.091 -480.454)"/><path class="i" d="M40.832,46.161V42.387a1.258,1.258,0,0,1,1.258-1.258h3.774a1.257,1.257,0,0,1,1.258,1.258v3.774a1.257,1.257,0,0,1-1.258,1.258H42.09A1.258,1.258,0,0,1,40.832,46.161Zm0,0" transform="translate(-37.687 -37.683)"/><path class="j" d="M40.832,71.75h2.359v1.572H40.832Zm0,0" transform="translate(-37.687 -65.946)"/><path class="j" d="M91.867,71.75h2.358v1.572H91.867Zm0,0" transform="translate(-84.791 -65.946)"/><path class="k" d="M483.771,290.927a.785.785,0,0,1-.556-.23l-3.145-3.145a.786.786,0,0,1,1.112-1.112l3.145,3.145a.786.786,0,0,1-.556,1.342Zm0,0" transform="translate(-442.888 -263.895)"/></g></svg>