<svg xmlns="http://www.w3.org/2000/svg" width="63.617" height="56.969" viewBox="0 0 63.617 56.969"><defs><style>.a{fill:#902145;}</style></defs><g transform="translate(0 0)"><path class="a" d="M48.635,47.044c0-.012,0-.024,0-.035a1.419,1.419,0,0,0-.035-.173v0a1.434,1.434,0,0,0-.055-.159c-.006-.015-.013-.029-.019-.044q-.025-.057-.055-.111c-.009-.016-.017-.032-.027-.048s-.009-.017-.014-.026c-.021-.034-.045-.066-.068-.1l-.013-.018a1.4,1.4,0,0,0-.116-.131l-.024-.022a1.45,1.45,0,0,0-.11-.1l-.029-.023a1.458,1.458,0,0,0-.159-.1L26.7,33.9l12.209-7.688L59.378,37.848l-8.62,5.428a1.439,1.439,0,1,0,1.534,2.436L62.946,39a1.439,1.439,0,0,0-.056-2.469L39.584,23.286a1.439,1.439,0,0,0-1.478.033L23.143,32.741l-.009.006-7.477,4.708-.01.006L.675,46.889A1.439,1.439,0,0,0,.73,49.358L24.038,62.607a1.439,1.439,0,0,0,1.478-.033L36.17,55.864a1.439,1.439,0,0,0-1.534-2.436l-9.926,6.25L4.243,48.044l12.209-7.688,21.83,12.408V69.2a1.439,1.439,0,0,0,2.206,1.218L47.974,65.7a1.439,1.439,0,0,0,.672-1.218V47.213c0-.008,0-.017,0-.025Q48.644,47.116,48.635,47.044ZM41.16,66.592V51.927a1.439,1.439,0,0,0-.728-1.251L19.215,38.616l4.723-2.974L44.406,47.276,42.614,48.4a1.439,1.439,0,1,0,1.534,2.436l1.62-1.02V63.69Z" transform="translate(-0.002 -23.098)"/><path class="a" d="M359.3,155.363l-10.655,6.709a1.439,1.439,0,1,0,1.534,2.436l10.654-6.709a1.439,1.439,0,0,0-1.534-2.436Z" transform="translate(-297.891 -136.136)"/><path class="a" d="M34.634,233.619l-9.925,6.25L2.151,227.047a1.439,1.439,0,0,0-1.422,2.5L24.035,242.8a1.439,1.439,0,0,0,1.478-.033l10.654-6.709a1.439,1.439,0,0,0-1.534-2.436Z" transform="translate(0 -197.532)"/><path class="a" d="M359.3,195.363l-10.655,6.709a1.439,1.439,0,1,0,1.534,2.436l10.654-6.709a1.439,1.439,0,1,0-1.534-2.436Z" transform="translate(-297.891 -170.379)"/><path class="a" d="M34.634,273.619l-9.925,6.25L2.151,267.047a1.439,1.439,0,0,0-1.422,2.5L24.035,282.8a1.439,1.439,0,0,0,1.478-.033l10.654-6.709a1.439,1.439,0,0,0-1.534-2.436Z" transform="translate(0 -231.774)"/><path class="a" d="M359.3,235.363l-10.655,6.709a1.439,1.439,0,1,0,1.534,2.436l10.654-6.709a1.439,1.439,0,0,0-1.534-2.436Z" transform="translate(-297.891 -204.622)"/><path class="a" d="M34.634,313.619l-9.925,6.25L2.151,307.047a1.439,1.439,0,1,0-1.422,2.5L24.035,322.8a1.438,1.438,0,0,0,1.478-.033l10.654-6.709a1.439,1.439,0,0,0-1.534-2.436Z" transform="translate(0 -266.017)"/></g></svg>