<svg xmlns="http://www.w3.org/2000/svg" width="11.049" height="17.093" viewBox="0 0 11.049 17.093"><defs><style>.a{fill:#af0606;}</style></defs><path class="a" d="M14.9,9.552a5.956,5.956,0,0,0-2.305-.968L11.806,8.4V5.041l.106.043a1.986,1.986,0,0,1,1.075,1.69h2.676a3.921,3.921,0,0,0-1.579-3.222,5.458,5.458,0,0,0-2.279-.973V.72H9.313v1.8A4.882,4.882,0,0,0,6.575,3.639,3.83,3.83,0,0,0,5.257,6.614,3.25,3.25,0,0,0,6.6,9.5a8.505,8.505,0,0,0,2.709.972v3.638a2.142,2.142,0,0,1-1.107-.657A2.255,2.255,0,0,1,7.7,12.115H5.04a3.83,3.83,0,0,0,1.508,3.239,5.576,5.576,0,0,0,2.766,1.07v1.388h2.493V16.448a5.274,5.274,0,0,0,2.871-1.141,3.825,3.825,0,0,0,1.412-3.034A3.262,3.262,0,0,0,14.9,9.552ZM8.483,7.48a1.144,1.144,0,0,1-.649-1.068A1.377,1.377,0,0,1,8.492,5.2a2.521,2.521,0,0,1,.821-.337V7.789A4.294,4.294,0,0,1,8.483,7.48Zm3.73,6.555a3.468,3.468,0,0,1-.407.109v-3.1a4.447,4.447,0,0,1,1.014.415,1.143,1.143,0,0,1,.584,1.024A1.556,1.556,0,0,1,12.213,14.035Z" transform="translate(-5.04 -0.72)"/></svg>