<svg xmlns="http://www.w3.org/2000/svg" xmlns:xlink="http://www.w3.org/1999/xlink" width="132.078" height="129.254" viewBox="0 0 132.078 129.254"><defs><style>.a,.k,.m,.n{fill:none;}.b{clip-path:url(#a);}.c{fill:#fff;}.d{clip-path:url(#b);}.e{fill:#291f34;}.f{fill:#af0606;}.g{clip-path:url(#d);}.h{fill:#ffcbdf;}.i{clip-path:url(#e);}.j{fill:#0c0065;}.k,.m{stroke:#9969d3;}.k,.m,.n{stroke-linecap:round;stroke-linejoin:round;stroke-miterlimit:10;}.l{fill:#9969d3;}.m{stroke-width:1.508px;}.n{stroke:#fff;}</style><clipPath id="a"><path class="a" d="M0,0H123.384V124.137H0Z"/></clipPath><clipPath id="b"><path class="a" d="M61.692,0A61.88,61.88,0,0,0,0,62.067H0a61.881,61.881,0,0,0,61.692,62.068h0a61.881,61.881,0,0,0,61.692-62.068h0"/></clipPath><clipPath id="d"><path class="a" d="M61.692,0A61.88,61.88,0,0,0,0,62.067H0a61.881,61.881,0,0,0,61.692,62.068h0a61.881,61.881,0,0,0,61.692-62.068h0A61.88,61.88,0,0,0,61.692,0Z"/></clipPath><clipPath id="e"><path class="a" d="M7.934,23.5S11.5,38.829,11.777,40.146h0C12.058,41.462,0,49.113,0,49.113H0s16.193,1.856,26.913-1.374h0c10.719-3.23,32.478-13.272,32.478-13.272h0a115.384,115.384,0,0,1-15.767-1.19h0C32.842,31.93,27.376,0,27.376,0h0"/></clipPath></defs><g transform="translate(0 -0.926)"><g transform="translate(0 0.926)"><path class="a" d="M0,0H123.384V124.137H0Z" transform="translate(0 0)"/><g class="b" transform="translate(0 0)"><path class="c" d="M123.384,62.068A61.693,61.693,0,1,1,61.692,0a61.881,61.881,0,0,1,61.692,62.068" transform="translate(0)"/></g></g><g transform="translate(0 0.927)"><path class="a" d="M61.692,0A61.88,61.88,0,0,0,0,62.067H0a61.881,61.881,0,0,0,61.692,62.068h0a61.881,61.881,0,0,0,61.692-62.068h0"/><g class="d"><path class="e" d="M62.048,4.708C52.679,1.117,37.956-8.758,20.556,18.623c-7.638,12.019,0,17.955-8.031,28.728S-3.982,69.795,5.387,79.67-3.09,94.483.479,102.562s20.969,23.341,44.615,1.347S78.11,90.442,91.94,76.976s7.584-26.035,1.784-34.114S86.85,20.769,81.233,14.134C70.972,2.015,62.048,4.708,62.048,4.708" transform="translate(9.236 9.554)"/></g><path class="a" d="M61.692,0A61.88,61.88,0,0,0,0,62.067H0a61.881,61.881,0,0,0,61.692,62.068h0a61.881,61.881,0,0,0,61.692-62.068h0"/><g class="d"><path class="f" d="M100,1.765C114.418,4.5,135.108,47,141.756,65.017l-28.381,9.451L6.517,97.7S-7.713,50.29,5.882,32.332C27.06,4.36,68.952-4.117,100,1.765" transform="translate(30.712 87.199)"/></g><path class="a" d="M61.692,0A61.88,61.88,0,0,0,0,62.067H0a61.881,61.881,0,0,0,61.692,62.068h0a61.881,61.881,0,0,0,61.692-62.068h0A61.88,61.88,0,0,0,61.692,0Z"/><g class="g"><path class="h" d="M27.376,0s5.465,31.93,16.248,33.278,13.123,1.108,13.123,1.108S40.059,44.22,29.34,47.451,0,49.113,0,49.113s12.524-8.576,10.9-13.855C10.5,33.971,7.935,23.5,7.935,23.5Z" transform="translate(56.031 52.568)"/></g></g><g transform="translate(56.032 53.495)"><path class="a" d="M7.934,23.5S11.5,38.829,11.777,40.146h0C12.058,41.462,0,49.113,0,49.113H0s16.193,1.856,26.913-1.374h0c10.719-3.23,32.478-13.272,32.478-13.272h0a115.384,115.384,0,0,1-15.767-1.19h0C32.842,31.93,27.376,0,27.376,0h0" transform="translate(0 0)"/><g class="i" transform="translate(0 0)"><path class="j" d="M0,13.019s-.017,42.829,22.373,38.5C44.2,47.3,34.563,8.343,34.563,8.343,22.609-2.386,5.774-4.684,0,13.019" transform="translate(-14.446 -17.342)"/></g></g><g transform="translate(0 0.927)"><path class="a" d="M61.692,0A61.88,61.88,0,0,0,0,62.067H0a61.881,61.881,0,0,0,61.692,62.068h0a61.881,61.881,0,0,0,61.692-62.068h0"/><g class="d"><path class="h" d="M0,14.562s4.961,51.354,30.508,42.8c18.61-6.231,9.623-52.116,9.623-52.116C25.939-5.281,3.034,1.165,0,14.562" transform="translate(38.063 25.109)"/></g><path class="a" d="M61.692,0A61.88,61.88,0,0,0,0,62.067H0a61.881,61.881,0,0,0,61.692,62.068h0a61.881,61.881,0,0,0,61.692-62.068h0A61.88,61.88,0,0,0,61.692,0Z"/><g class="g"><path class="k" d="M0,14.562s5.015,51.516,30.508,42.8c18.164-6.21,9.623-52.116,9.623-52.116C25.939-5.281,3.034,1.165,0,14.562Z" transform="translate(38.063 25.109)"/></g><path class="a" d="M61.692,0A61.88,61.88,0,0,0,0,62.067H0a61.881,61.881,0,0,0,61.692,62.068h0a61.881,61.881,0,0,0,61.692-62.068h0"/><g class="d"><path class="l" d="M1.78,1.536c.31.98.2,1.889-.239,2.031S.488,3.029.178,2.05-.025.161.417.019,1.47.556,1.78,1.536" transform="translate(48.744 55.698)"/></g><path class="a" d="M61.692,0A61.88,61.88,0,0,0,0,62.067H0a61.881,61.881,0,0,0,61.692,62.068h0a61.881,61.881,0,0,0,61.692-62.068h0"/><g class="d"><path class="m" d="M0,0,.9,12.859l5.449-1.748" transform="translate(56.914 55.386)"/></g><path class="a" d="M61.692,0A61.88,61.88,0,0,0,0,62.067H0a61.881,61.881,0,0,0,61.692,62.068h0a61.881,61.881,0,0,0,61.692-62.068h0"/><g class="d"><path class="l" d="M1.78,1.536c.31.98.2,1.889-.24,2.031S.488,3.029.178,2.05-.025.16.417.019,1.47.556,1.78,1.536" transform="translate(65.764 52.016)"/></g><path class="a" d="M61.692,0A61.88,61.88,0,0,0,0,62.067H0a61.881,61.881,0,0,0,61.692,62.068h0a61.881,61.881,0,0,0,61.692-62.068h0"/><g class="d"><path class="m" d="M0,1.993S2.067-1.512,4.91.774" transform="translate(44.815 48.366)"/></g><path class="a" d="M61.692,0A61.88,61.88,0,0,0,0,62.067H0a61.881,61.881,0,0,0,61.692,62.068h0a61.881,61.881,0,0,0,61.692-62.068h0"/><g class="d"><path class="m" d="M0,1.993S2.068-1.512,4.911.774" transform="translate(62.958 44.325)"/></g><path class="a" d="M61.692,0A61.88,61.88,0,0,0,0,62.067H0a61.881,61.881,0,0,0,61.692,62.068h0a61.881,61.881,0,0,0,61.692-62.068h0"/><g class="d"><path class="m" d="M0,2.173s1.575,1.627,3.076.79A8.214,8.214,0,0,0,5.668,0" transform="translate(65.889 75.035) rotate(180)"/></g><path class="a" d="M61.692,0A61.88,61.88,0,0,0,0,62.067H0a61.881,61.881,0,0,0,61.692,62.068h0a61.881,61.881,0,0,0,61.692-62.068h0"/><g class="d"><path class="h" d="M10.08,8.6c.564,5.051-1.213,9.4-3.968,9.708S.668,14.775.1,9.725,1.318.328,4.072.018,9.517,3.548,10.08,8.6" transform="translate(77.308 38.31)"/></g><path class="a" d="M61.692,0A61.88,61.88,0,0,0,0,62.067H0a61.881,61.881,0,0,0,61.692,62.068h0a61.881,61.881,0,0,0,61.692-62.068h0"/><g class="d"><path class="k" d="M0,6.83S.526-.148,2.738,0" transform="translate(82.06 44.964)"/></g><path class="a" d="M61.692,0A61.88,61.88,0,0,0,0,62.067H0a61.881,61.881,0,0,0,61.692,62.068h0a61.881,61.881,0,0,0,61.692-62.068h0"/><g class="d"><path class="e" d="M43.138,19.139s-1.929-1.082-7.632-7.407a58.827,58.827,0,0,1-4.153-5.026s-4.372,7.825-9.909,10.77-5.556-4.895-5.556-4.895-2.643,5.1-6.138,7.136S0,23.06,0,23.06,2.048,5.474,8.809,1.985,38.179.343,40.972,1.949c11.078,6.37,2.166,17.19,2.166,17.19" transform="translate(35.98 20.774)"/></g><path class="a" d="M61.692,0A61.88,61.88,0,0,0,0,62.067H0a61.881,61.881,0,0,0,61.692,62.068h0a61.881,61.881,0,0,0,61.692-62.068h0"/><g class="d"><path class="n" d="M13.384,0S3.123,8.079,0,16.159" transform="translate(30.238 18.751)"/></g><path class="a" d="M61.692,0A61.88,61.88,0,0,0,0,62.067H0a61.881,61.881,0,0,0,61.692,62.068h0a61.881,61.881,0,0,0,61.692-62.068h0"/><g class="d"><path class="n" d="M0,0S7.138,7.182,8.476,13.017" transform="translate(97.607 50.621)"/></g><path class="a" d="M61.692,0A61.88,61.88,0,0,0,0,62.067H0a61.881,61.881,0,0,0,61.692,62.068h0a61.881,61.881,0,0,0,61.692-62.068h0"/><g class="d"><path class="n" d="M4.079,7.182C-.829,2.693.064,0,.064,0" transform="translate(16.344 82.94)"/></g><path class="a" d="M61.692,0A61.88,61.88,0,0,0,0,62.067H0a61.881,61.881,0,0,0,61.692,62.068h0a61.881,61.881,0,0,0,61.692-62.068h0"/><g class="d"><path class="h" d="M.129,1.742S4.48-.158,7.939.011s6.31,6.27,4.953,6.281C-2.2,6.411.129,1.742.129,1.742" transform="translate(44.784 118.394)"/></g><path class="a" d="M61.692,0A61.88,61.88,0,0,0,0,62.067H0a61.881,61.881,0,0,0,61.692,62.068h0a61.881,61.881,0,0,0,61.692-62.068h0"/><g class="d"><path class="h" d="M7.609,0S3.285,1.959,1.082,4.648s-.568,6.648.742,7c.655.178,5.882-3.515,7.164-6.473S7.609,0,7.609,0" transform="translate(108.251 89.881)"/></g><path class="a" d="M61.692,0A61.88,61.88,0,0,0,0,62.067H0a61.881,61.881,0,0,0,61.692,62.068h0a61.881,61.881,0,0,0,61.692-62.068h0"/><g class="d"><path class="k" d="M0,0S3.058,9.228,8.858,10.574" transform="translate(67.333 27.479)"/></g><path class="a" d="M61.692,0A61.88,61.88,0,0,0,0,62.067H0a61.881,61.881,0,0,0,61.692,62.068h0a61.881,61.881,0,0,0,61.692-62.068h0"/><g class="d"><path class="k" d="M0,2.644C12.938-5.436,24.539,7.582,24.539,7.582s6.245-3.591,13.384,1.346" transform="translate(46.746 6.681)"/></g><path class="a" d="M61.692,0A61.88,61.88,0,0,0,0,62.067H0a61.881,61.881,0,0,0,61.692,62.068h0a61.881,61.881,0,0,0,61.692-62.068h0"/><g class="d"><path class="k" d="M18.638,0S20.869,10.324,7.93,17.955c-9.309,5.49-10.707,26.483-2.676,29.177" transform="translate(8.031 43.439)"/></g><path class="a" d="M61.692,0A61.88,61.88,0,0,0,0,62.067H0a61.881,61.881,0,0,0,61.692,62.068h0a61.881,61.881,0,0,0,61.692-62.068h0"/><g class="d"><path class="k" d="M0,0S4.908,14.364,12.938,21.546c8.2,7.335,6.246,27.381-4.015,31.421" transform="translate(94.038 34.013)"/></g><path class="a" d="M61.692,0A61.88,61.88,0,0,0,0,62.067H0a61.881,61.881,0,0,0,61.692,62.068h0a61.881,61.881,0,0,0,61.692-62.068h0"/><g class="d"><path class="k" d="M0,.038A61.8,61.8,0,0,0,22.54,0" transform="translate(56.031 101.643)"/></g></g><g transform="translate(24.021 72.678)"><path class="h" d="M10.932,6.369S8.2.428,6.619.035C3.363-.774-2.041,12.568.8,13.951c2.965,1.444,7.372-8.47,7.372-8.47Z" transform="translate(12.723 42.904)"/><path class="h" d="M8.777,6.671S8.629.5,6.436.029,1.63,4.846.407,8.695s.559,5.834,1.985,6.292C4.3,15.6,8.777,6.671,8.777,6.671" transform="translate(7.806 41.272)"/><path class="h" d="M8.844,5.9S8.339-.62,6.019.048-2.438,11.939,1.048,14.236,8.844,5.9,8.844,5.9" transform="translate(3.345 40.392)"/><path class="h" d="M7,3.736S6.592-.872,4.63.147-.1,5.46,0,8.084s1.27,5.591,3.359,3.436C4.618,10.224,7,3.736,7,3.736" transform="translate(0 39.715)"/><path class="k" d="M6.619.035C3.363-.774-2.041,12.567.8,13.95c2.965,1.444,7.372-8.469,7.372-8.469" transform="translate(12.723 42.904)"/><path class="k" d="M6.019,0C4.279.5.392,6.939.027,11.1c-.121,1.386.149,2.518,1.021,3.092,0,0,1.783,1.515,3.35-.966" transform="translate(3.345 40.441)"/><path class="k" d="M4.63,0C2.667,1.019-.1,5.313,0,7.938s1.269,5.591,3.359,3.435" transform="translate(0 39.862)"/><path class="k" d="M4.77,13.395s-1.409,1.982-2.379,1.592A3.633,3.633,0,0,1,.407,13.112a6.087,6.087,0,0,1,0-4.417C1.629,4.847,4.243-.44,6.436.029" transform="translate(7.806 41.272)"/><path class="h" d="M1.9,8.385S-.625,2.351.147.914C1.741-2.054,15.189,2.9,14.3,5.942c-.932,3.178-11.187-.211-11.187-.211Z" transform="translate(88.73 12.398)"/><path class="h" d="M3.494,7.1S-.946,2.839.184.891,6.96.554,10.612,2.234s3.914,4.34,3.293,5.709C13.069,9.781,3.494,7.1,3.494,7.1" transform="translate(90.919 7.522)"/><path class="h" d="M2.945,6.341S-1.512,1.576.54.3,14.973,2,14.319,6.143s-11.373.2-11.373.2" transform="translate(93.212 3.904)"/><path class="h" d="M1.753,4.472S-1.359,1.066.71.29,7.8.343,9.66,2.186,12.917,6.893,9.926,7c-1.8.063-8.173-2.526-8.173-2.526" transform="translate(95.802 0)"/><path class="k" d="M0,.914C1.595-2.054,15.042,2.9,14.149,5.942,13.217,9.12,2.962,5.731,2.962,5.731" transform="translate(88.877 12.398)"/><path class="k" d="M0,.3C1.539-.659,8.889.779,12.19,3.3c1.1.842,1.751,1.8,1.588,2.84,0,0-.085,2.347-2.964,1.845" transform="translate(93.752 3.904)"/><path class="k" d="M0,.29c2.07-.775,7.09.053,8.95,1.9S12.207,6.893,9.216,7" transform="translate(96.512 0)"/><path class="k" d="M10.95,8.643s2.405.285,2.771-.7a3.667,3.667,0,0,0-.043-2.738,6.034,6.034,0,0,0-3.249-2.971C6.776.554,1.131-1.057,0,.891" transform="translate(91.103 7.522)"/></g></g></svg>