<svg xmlns="http://www.w3.org/2000/svg" width="41.789" height="41.789" viewBox="0 0 41.789 41.789"><defs><style>.a{fill:#9ed0ff;}.b{fill:#73bcff;}.c{fill:#3aaaff;}.d{fill:#0095ff;}</style></defs><path class="a" d="M20.895,0A20.895,20.895,0,1,0,41.789,20.895,20.967,20.967,0,0,0,20.895,0Z"/><path class="b" d="M276.895,20.895A20.967,20.967,0,0,1,256,41.789V0A20.967,20.967,0,0,1,276.895,20.895Z" transform="translate(-235.105)"/><path class="c" d="M48.446,30A18.446,18.446,0,1,0,66.892,48.446,18.511,18.511,0,0,0,48.446,30Z" transform="translate(-27.551 -27.551)"/><path class="d" d="M274.446,48.446A18.511,18.511,0,0,1,256,66.892V30A18.511,18.511,0,0,1,274.446,48.446Z" transform="translate(-235.105 -27.551)"/><g transform="translate(1.335)"><path class="a" d="M131.1,0C124.93,0,120,9.215,120,20.895s4.93,20.895,11.1,20.895,11.1-9.215,11.1-20.895S137.271,0,131.1,0Zm0,39.34c-4.652,0-8.652-8.48-8.652-18.446s4-18.446,8.652-18.446,8.652,8.48,8.652,18.446S135.753,39.34,131.1,39.34Z" transform="translate(-111.54)"/><rect class="a" width="34.101" height="2.449" transform="translate(2.509 9.794)"/><rect class="a" width="39.119" height="3.13" transform="translate(0 19.33)"/><rect class="a" width="34.101" height="2.449" transform="translate(2.509 29.546)"/></g><g transform="translate(20.895)"><path class="b" d="M267.1,20.895c0,11.68-4.93,20.895-11.1,20.895V39.34c4.652,0,8.652-8.48,8.652-18.446s-4-18.446-8.652-18.446V0C262.171,0,267.1,9.215,267.1,20.895Z" transform="translate(-256)"/><rect class="b" width="17.05" height="2.449" transform="translate(0 9.794)"/><rect class="b" width="17.05" height="2.449" transform="translate(0 29.546)"/><rect class="b" width="19.56" height="3.13" transform="translate(0 19.33)"/></g><rect class="a" width="3.13" height="39.119" transform="translate(19.33 1.335)"/><rect class="b" width="1.565" height="39.119" transform="translate(20.895 1.335)"/></svg>