<svg xmlns="http://www.w3.org/2000/svg" xmlns:xlink="http://www.w3.org/1999/xlink" width="98.822" height="100.008" viewBox="0 0 98.822 100.008"><defs><style>.a,.c{stroke:#000;}.a{stroke-width:2px;fill:url(#a);}.b{fill:url(#b);}.c{stroke-width:1.5px;fill:url(#c);}.d{fill:url(#d);}.e{fill:url(#e);}</style><linearGradient id="a" x1="0.445" y1="-0.261" x2="0.542" y2="1.104" gradientUnits="objectBoundingBox"><stop offset="0" stop-color="#ffd945"/><stop offset="0.304" stop-color="#ffcd3e"/><stop offset="0.856" stop-color="#ffad2b"/><stop offset="1" stop-color="#ffa325"/></linearGradient><linearGradient id="b" x1="0.889" y1="0.353" x2="-1.373" y2="0.891" gradientUnits="objectBoundingBox"><stop offset="0" stop-color="#e87264" stop-opacity="0"/><stop offset="0.652" stop-color="#f67150" stop-opacity="0.651"/><stop offset="1" stop-color="#ff7044"/></linearGradient><linearGradient id="c" x1="0" y1="0.5" x2="1" y2="0.5" xlink:href="#a"/><linearGradient id="d" x1="0.679" y1="0.45" x2="-1.161" y2="0.68" xlink:href="#b"/><linearGradient id="e" x1="1.03" y1="1.841" x2="0.177" y2="0.262" xlink:href="#b"/></defs><g transform="translate(-0.917 1)"><g transform="translate(15.912 0)"><path class="a" d="M127.495,42.158a6.574,6.574,0,0,1-6.021-9.214L131.781,9.438A6.734,6.734,0,0,0,125.614,0H102.051a6.734,6.734,0,0,0-6.167,4.03l-19.7,44.917A5.26,5.26,0,0,0,81,56.319h17.14a5.26,5.26,0,0,1,5.06,6.694L94.488,93.77a3.238,3.238,0,0,0,5.668,2.876l33.188-42.5a7.422,7.422,0,0,0-5.85-11.99Z" transform="translate(-75.738 0)"/><path class="b" d="M191.053,96.646l33.188-42.5a7.422,7.422,0,0,0-5.849-11.99,6.574,6.574,0,0,1-6.02-9.214L222.679,9.438A6.734,6.734,0,0,0,216.512,0h-9.218L190.352,39.855a7.041,7.041,0,0,0,6.48,9.795,11.928,11.928,0,0,1,10.12,18.243l-18.719,30A3.114,3.114,0,0,0,191.053,96.646Z" transform="translate(-166.636 0)"/></g><g transform="translate(65.439 8.233)"><path class="c" d="M352.67,98.782l13.851-21.7a4.531,4.531,0,0,0-2.953-6.885l-7.749-1.508A5.49,5.49,0,0,1,351.41,62.7l1.842-16.774a2.737,2.737,0,0,0-5.027-1.771l-13.788,21.6a4.531,4.531,0,0,0,3.026,6.9L345.015,74a5.49,5.49,0,0,1,4.5,6l-1.868,17.008A2.737,2.737,0,0,0,352.67,98.782Z" transform="translate(-333.721 -42.883)"/><path class="d" d="M411.41,71.281l-7.749-1.508a5.49,5.49,0,0,1-4.408-5.988l1.842-16.774a2.66,2.66,0,0,0-1.58-2.786L393.242,63.67a6.452,6.452,0,0,0,3.717,7.96l3.6,1.46a6.451,6.451,0,0,1,3.664,8.117l-6.941,19.764a2.674,2.674,0,0,0,3.225-1.105l13.851-21.7A4.531,4.531,0,0,0,411.41,71.281Z" transform="translate(-381.563 -43.967)"/></g><path class="e" d="M81,246.782H96.21l-7.276-7.276a3.8,3.8,0,0,0-2.093-1.168l-6.573-1.279a4.634,4.634,0,0,1-2.46-1.343l-1.62,3.695A5.26,5.26,0,0,0,81,246.782Z" transform="translate(-59.826 -190.464)"/><g transform="translate(1.698 24.707)"><path class="c" d="M17.771,176.111,29.519,157.7a3.843,3.843,0,0,0-2.505-5.84l-6.573-1.279a4.657,4.657,0,0,1-3.739-5.079l1.563-14.228a2.321,2.321,0,0,0-4.264-1.5L2.305,148.1a3.843,3.843,0,0,0,2.566,5.851l6.406,1.139a4.656,4.656,0,0,1,3.813,5.093l-1.584,14.427a2.321,2.321,0,0,0,4.264,1.5Z" transform="translate(-1.698 -128.698)"/><path class="d" d="M67.593,152.784,61.02,151.5a4.657,4.657,0,0,1-3.739-5.079L58.843,132.2a2.256,2.256,0,0,0-1.34-2.363l-5.32,16.494a5.472,5.472,0,0,0,3.153,6.751l3.057,1.238A5.472,5.472,0,0,1,61.5,161.2l-5.888,16.764a2.268,2.268,0,0,0,2.736-.938L70.1,158.624A3.843,3.843,0,0,0,67.593,152.784Z" transform="translate(-42.277 -129.617)"/></g></g></svg>