<svg xmlns="http://www.w3.org/2000/svg" width="28.203" height="25.889" viewBox="0 0 28.203 25.889"><defs><style>.a{fill:#fff;}</style></defs><g transform="translate(0 -21)"><g transform="translate(2.369 36.423)"><path class="a" d="M43.551,301a.551.551,0,1,0,.551.551A.551.551,0,0,0,43.551,301Z" transform="translate(-43 -301)"/></g><g transform="translate(0 34.22)"><path class="a" d="M27.3,265.028a2.126,2.126,0,0,0-1.942-.259l-.014.005-5.205,2.042a2.2,2.2,0,0,0-2.181-2.511H14.39a.551.551,0,0,1-.27-.071l-2.91-1.637a3.859,3.859,0,0,0-1.891-.5H5.674v-.551A.551.551,0,0,0,5.123,261H.551a.551.551,0,0,0-.551.551v9.915a.551.551,0,0,0,.551.551H5.123a.551.551,0,0,0,.551-.551v-.551h.414l5.255,2.127a8.584,8.584,0,0,0,6.774-.144l.008,0,8.759-4.165a2.123,2.123,0,0,0,.415-3.7ZM4.572,270.915H1.1V262.1h3.47Zm21.886-3.2-.032.014L17.657,271.9a7.481,7.481,0,0,1-5.9.123L6.4,269.854a.552.552,0,0,0-.207-.04H5.674V263.2H9.318a2.756,2.756,0,0,1,1.351.354l2.91,1.637a1.655,1.655,0,0,0,.811.212h3.567a1.1,1.1,0,0,1,.577,2.039l0,0a.551.551,0,0,0-.115.063,1.1,1.1,0,0,1-.458.1h-5.6a1.654,1.654,0,0,0-1.653,1.652.551.551,0,1,0,1.1,0,.551.551,0,0,1,.551-.551h5.6a2.194,2.194,0,0,0,1.053-.269l6.728-2.64a1.022,1.022,0,0,1,.72,1.912Z" transform="translate(0 -261)"/></g><g transform="translate(2.369 38.627)"><path class="a" d="M43.551,341a.551.551,0,0,0-.551.551v3.305a.551.551,0,0,0,1.1,0v-3.305A.551.551,0,0,0,43.551,341Z" transform="translate(-43 -341)"/></g><g transform="translate(18.508 29.813)"><g transform="translate(0 0)"><path class="a" d="M339.305,181a3.305,3.305,0,1,0,3.3,3.3A3.309,3.309,0,0,0,339.305,181Zm0,5.508a2.2,2.2,0,1,1,2.2-2.2A2.206,2.206,0,0,1,339.305,186.508Z" transform="translate(-336 -181)"/></g></g><g transform="translate(16.305 21)"><g transform="translate(0 0)"><path class="a" d="M299.305,21a3.3,3.3,0,1,0,3.3,3.3A3.309,3.309,0,0,0,299.305,21Zm0,5.508a2.2,2.2,0,1,1,2.2-2.2A2.206,2.206,0,0,1,299.305,26.508Z" transform="translate(-296 -21)"/></g></g><g transform="translate(9.695 27.61)"><path class="a" d="M179.305,141a3.305,3.305,0,1,0,3.3,3.305A3.309,3.309,0,0,0,179.305,141Zm0,5.508a2.2,2.2,0,1,1,2.2-2.2A2.206,2.206,0,0,1,179.305,146.508Z" transform="translate(-176 -141)"/></g></g></svg>