<svg xmlns="http://www.w3.org/2000/svg" width="57.358" height="57.358" viewBox="0 0 57.358 57.358"><defs><style>.a{fill:#435c0f;}</style></defs><g transform="translate(0)"><path class="a" d="M48.095,227.472a3.824,3.824,0,0,0-2.868.956l-5.659,5.191a.957.957,0,0,1-.736.248l-1.912-.172a3.824,3.824,0,0,0-2.983-3.632v-.9a3.346,3.346,0,0,0-.956-6.548,1.43,1.43,0,1,1,1.434-1.357.956.956,0,1,0,1.912,0,3.355,3.355,0,0,0-2.39-3.2v-1.1a.956.956,0,0,0-1.912,0v1.1a3.346,3.346,0,0,0,.956,6.548,1.434,1.434,0,1,1-1.434,1.434.956.956,0,1,0-1.912,0,3.355,3.355,0,0,0,2.39,3.2v.555l-7.648-1.348a.474.474,0,0,0-.162,0H20.391v-.975a.956.956,0,0,0-.956-.956h-5.1v-.956a.956.956,0,0,0-.956-.956H.956a.956.956,0,1,0,0,1.912H12.428v19.119H.956a.956.956,0,1,0,0,1.912H13.383a.956.956,0,0,0,.956-.956v-.956h5.019a.956.956,0,0,0,.956-.956V230.339H24.09l9.368,1.644a1.911,1.911,0,0,1,1.52,2.179v.057a1.068,1.068,0,0,0-.067.248,1.912,1.912,0,0,1-2.132,1.243l-6.548-1.157a.956.956,0,1,0-.335,1.883l6.548,1.157a4.019,4.019,0,0,0,.669.057,3.823,3.823,0,0,0,3.374-2.036l2.218.191a2.867,2.867,0,0,0,2.17-.689l5.66-5.2a1.869,1.869,0,0,1,2.772.162A2.026,2.026,0,0,1,49,232.815L40.59,240.53a4.78,4.78,0,0,1-3.231,1.281H23.182a.956.956,0,1,0,0,1.912H37.359a6.693,6.693,0,0,0,4.522-1.759l8.412-7.715a3.89,3.89,0,0,0,.488-5.353A3.738,3.738,0,0,0,48.095,227.472ZM18.4,243.723H14.339v-15.3H18.4Zm0,0" transform="translate(0 -190.189)"/><path class="a" d="M42.868,401.912a.956.956,0,1,0,0-1.912,2.868,2.868,0,1,0,2.868,2.868.956.956,0,0,0-1.912,0,.956.956,0,1,1-.956-.956Zm0,0" transform="translate(-35.22 -352.202)"/><path class="a" d="M184,87.9v3.824a.956.956,0,0,0,1.912,0V87.9a8.6,8.6,0,0,1,8.6-8.6h.956a8.6,8.6,0,0,1,8.6,8.6v5.325a.956.956,0,1,0,1.912,0V89.811h2.868v.956a.956.956,0,1,0,1.912,0v-4.78h.956a1.912,1.912,0,0,0,1.912-1.912V82.163a1.912,1.912,0,0,0-1.912-1.912H207.9a1.912,1.912,0,0,0-1.912,1.912v1.912h-.717a10.626,10.626,0,0,0-4.216-5.086,2.868,2.868,0,0,0-.43-5.3,4.783,4.783,0,0,0,1.061-3V66.868a2.863,2.863,0,0,0-4.78-2.132,2.868,2.868,0,0,0-3.824,0,2.863,2.863,0,0,0-4.78,2.132v3.824a4.783,4.783,0,0,0,1.061,3,2.868,2.868,0,0,0-.43,5.3A10.515,10.515,0,0,0,184,87.9Zm23.9-5.736h3.824v1.912H207.9Zm-1.912,3.824h2.868V87.9h-2.868ZM190.214,66.868a.956.956,0,1,1,1.912,0,.956.956,0,1,0,1.912,0,.956.956,0,0,1,1.912,0,.956.956,0,1,0,1.912,0,.956.956,0,0,1,1.912,0v3.824a2.868,2.868,0,0,1-2.868,2.868h-3.824a2.868,2.868,0,0,1-2.868-2.868Zm0,10.516a.956.956,0,0,1,0-1.912h9.56a.956.956,0,0,1,0,1.912Zm0,0" transform="translate(-162.013 -56.352)"/><path class="a" d="M381.191,32.03l-5.736-7.648a.956.956,0,0,0-1.529,0l-5.736,7.648a.956.956,0,0,0,.765,1.53h1.912v4.78a.956.956,0,0,0,1.912,0V32.6a.956.956,0,0,0-.956-.956h-.956l3.824-5.1,3.824,5.1h-.956a.956.956,0,0,0-.956.956v5.736a.956.956,0,0,0,1.912,0V33.56h1.912a.956.956,0,0,0,.765-1.53Zm0,0" transform="translate(-324.025 -21.132)"/><path class="a" d="M32.955,13.384h3.824v8.6a.956.956,0,1,0,1.912,0v-9.56a.956.956,0,0,0-.956-.956H34.867l6.692-8.919,6.692,8.919H45.383a.956.956,0,0,0-.956.956v9.56a.956.956,0,1,0,1.912,0v-8.6h3.824a.956.956,0,0,0,.765-1.53L42.324.382a.956.956,0,0,0-1.529,0l-8.6,11.472a.956.956,0,0,0,.765,1.53Zm0,0" transform="translate(-28.175 0)"/><path class="a" d="M104,120.956v11.472a.956.956,0,1,0,1.912,0V120.956a.956.956,0,0,0-1.912,0Zm0,0" transform="translate(-91.572 -105.661)"/></g></svg>