<svg xmlns="http://www.w3.org/2000/svg" width="18.551" height="32.736" viewBox="0 0 18.551 32.736"><defs><style>.a{fill:#af0606;}</style></defs><g transform="translate(-110.933)"><g transform="translate(116.935 1.637)"><path class="a" d="M210.8,25.6h-5.456a.546.546,0,1,0,0,1.091H210.8a.546.546,0,0,0,0-1.091Z" transform="translate(-204.801 -25.6)"/></g><g transform="translate(125.664 1.637)"><path class="a" d="M342.425,25.6h-.546a.546.546,0,1,0,0,1.091h.546a.546.546,0,0,0,0-1.091Z" transform="translate(-341.334 -25.6)"/></g><g transform="translate(118.026 27.826)"><g transform="translate(0)"><path class="a" d="M224.727,435.2h-1.355a1.507,1.507,0,0,0-1.505,1.505v.264a1.507,1.507,0,0,0,1.5,1.5h1.355a1.507,1.507,0,0,0,1.505-1.5v-.264A1.507,1.507,0,0,0,224.727,435.2Zm.414,1.769a.414.414,0,0,1-.414.414h-1.355a.414.414,0,0,1-.414-.414v-.264a.414.414,0,0,1,.414-.414h1.354a.414.414,0,0,1,.414.414Z" transform="translate(-221.867 -435.2)"/></g></g><g transform="translate(110.933)"><g transform="translate(0)"><path class="a" d="M127.512,0H112.905a1.975,1.975,0,0,0-1.972,1.972V30.764a1.975,1.975,0,0,0,1.972,1.972h14.606a1.975,1.975,0,0,0,1.972-1.972V1.972A1.975,1.975,0,0,0,127.512,0Zm.881,30.764a.882.882,0,0,1-.881.881H112.905a.882.882,0,0,1-.881-.881V1.972a.882.882,0,0,1,.881-.881h14.606a.882.882,0,0,1,.881.881V30.764Z" transform="translate(-110.933)"/></g></g><g transform="translate(110.933 3.274)"><g transform="translate(0)"><path class="a" d="M128.939,51.2H111.48a.546.546,0,0,0-.546.546V74.661a.546.546,0,0,0,.546.546h17.459a.546.546,0,0,0,.546-.546V51.746A.546.546,0,0,0,128.939,51.2Zm-.546,22.915H112.025V52.291h16.368Z" transform="translate(-110.934 -51.2)"/></g></g></g></svg>