<svg xmlns="http://www.w3.org/2000/svg" width="32.957" height="56.733" viewBox="0 0 32.957 56.733"><defs><style>.a{fill:#203755;}</style></defs><g transform="translate(-7.334)"><path class="a" d="M36.459,0H11.166A3.843,3.843,0,0,0,7.334,3.832V52.9a3.844,3.844,0,0,0,3.832,3.834H36.459A3.841,3.841,0,0,0,40.291,52.9V3.832A3.843,3.843,0,0,0,36.459,0ZM19.767,2.762h8.092a.464.464,0,0,1,0,.929H19.767a.464.464,0,0,1,0-.929Zm4.046,52.055A1.917,1.917,0,1,1,25.728,52.9,1.916,1.916,0,0,1,23.812,54.817Zm13.812-5.176H10V6.077H37.624Z" transform="translate(0)"/></g></svg>