<svg xmlns="http://www.w3.org/2000/svg" width="51.317" height="51.321" viewBox="0 0 51.317 51.321"><defs><style>.a{fill:#88b337;}.b{fill:#dadddf;}.c{fill:#cfd2d4;}.d{fill:#b6b8ba;}.e{fill:#6b962a;}</style></defs><g transform="translate(-0.338 0)"><path class="a" d="M315.786,305.36l-10.532-10.531-.441.441a1.873,1.873,0,0,1-2.649-2.649l.441-.441-2.649-2.649-8.828,8.828,2.649,2.649.442-.442a1.873,1.873,0,1,1,2.648,2.649l-.442.441,10.532,10.531a6.23,6.23,0,0,0,1.051.84l8.617-8.616A6.343,6.343,0,0,0,315.786,305.36Zm0,0" transform="translate(-265.959 -264.808)"/><path class="b" d="M497.421,487.207l-8.617,8.616a6.236,6.236,0,0,0,8.617-8.616Zm0,0" transform="translate(-446.755 -445.603)"/><path class="c" d="M12.242,7.113,11.36,3.582,5.18.051,1.648,3.582,5.18,9.762l3.531.883L29.017,30.95l3.531-3.531Zm0,0" transform="translate(-1.198 -0.047)"/><path class="b" d="M51.357,7.365l-5.881,5.881-5.3-1.766-1.766-5.3L44.294.3A9.671,9.671,0,0,0,32.533,12.064L12.51,32.086a9.767,9.767,0,1,0,7.063,7.063L39.6,19.126A9.675,9.675,0,0,0,51.357,7.365ZM12.81,45.912h-5.3L4.864,41.5l2.649-4.414h5.3L15.459,41.5Zm0,0" transform="translate(0 0)"/><path class="d" d="M180.41,198.251l19.423-19.423,1.249,1.249L181.659,199.5Zm0,0" transform="translate(-164.695 -163.558)"/><path class="e" d="M407.867,407.534l1.249-1.249,8.828,8.828-1.249,1.249Zm0,0" transform="translate(-372.729 -371.591)"/><path class="c" d="M563.465,490.57a6.228,6.228,0,0,0-.989-3.363l-2.543,2.542v6.437A6.239,6.239,0,0,0,563.465,490.57Zm0,0" transform="translate(-511.81 -445.603)"/></g></svg>